<?xml version="1.0" standalone="no"?>
<!DOCTYPE svg PUBLIC "-//W3C//DTD SVG 20010904//EN"
 "http://www.w3.org/TR/2001/REC-SVG-20010904/DTD/svg10.dtd">
<svg version="1.0" xmlns="http://www.w3.org/2000/svg"
 width="1920.000000pt" height="1080.000000pt" viewBox="0 0 1920.000000 1080.000000"
 preserveAspectRatio="xMidYMid meet">
<metadata>
Created by potrace 1.16, written by Peter Selinger 2001-2019
</metadata>
<g transform="translate(0.000000,1080.000000) scale(0.100000,-0.100000)"
fill="#000000" stroke="none">
<path d="M0 5400 l0 -5400 9600 0 9600 0 0 4570 c0 3649 -3 4570 -12 4570 -15
1 -108 13 -217 29 -41 7 -83 18 -92 27 -14 12 -24 13 -54 5 -20 -5 -42 -8 -48
-6 -7 3 -32 7 -57 9 -25 3 -63 8 -86 12 -29 4 -44 2 -55 -9 -13 -13 -19 -13
-40 -1 -13 7 -49 14 -79 14 -30 0 -95 8 -145 16 -49 9 -128 20 -175 24 -47 5
-107 13 -135 19 -27 7 -86 14 -130 17 -44 3 -99 12 -123 20 -23 8 -65 14 -92
14 -27 0 -85 6 -127 14 -98 18 -280 36 -362 36 -34 0 -71 4 -81 10 -10 5 -54
12 -97 15 -43 3 -118 10 -168 15 -217 24 -787 56 -922 52 -105 -3 -143 -1
-143 7 0 8 -17 11 -47 10 -27 -1 -55 1 -63 5 -9 4 -24 0 -35 -8 -11 -9 -15
-16 -8 -16 6 0 36 -24 66 -53 29 -29 68 -64 86 -76 42 -30 81 -69 81 -81 0 -5
14 -16 30 -25 17 -9 30 -19 30 -23 0 -11 55 -72 64 -72 13 0 36 -28 36 -43 0
-8 7 -17 15 -21 8 -3 15 -10 15 -16 0 -7 17 -28 38 -48 21 -20 42 -46 46 -57
5 -13 10 -15 13 -7 3 6 12 12 20 12 12 0 13 -3 4 -14 -9 -10 -9 -20 0 -40 7
-14 16 -26 21 -26 4 0 8 -7 8 -15 0 -8 9 -23 20 -32 11 -10 20 -27 20 -38 0
-11 12 -33 28 -50 19 -21 27 -42 28 -68 1 -35 14 -74 50 -152 13 -28 28 -137
40 -298 5 -66 -25 -264 -47 -312 -5 -11 -18 -51 -29 -90 -46 -162 -100 -320
-120 -357 -6 -10 -10 -27 -10 -38 0 -11 -4 -28 -9 -38 -24 -45 -80 -195 -127
-341 -8 -24 -18 -49 -23 -55 -5 -6 -12 -29 -16 -51 -4 -22 -15 -58 -25 -80
-33 -73 -50 -116 -50 -126 0 -5 -16 -44 -35 -85 -19 -41 -35 -84 -35 -96 0
-11 -11 -44 -24 -72 -13 -28 -27 -67 -31 -86 -4 -19 -12 -38 -18 -42 -6 -3
-11 -15 -12 -25 0 -10 -9 -30 -18 -43 -9 -14 -17 -30 -17 -36 0 -13 -34 -96
-56 -136 -7 -14 -14 -35 -14 -46 0 -12 -4 -23 -9 -26 -5 -3 -12 -22 -16 -42
-3 -20 -10 -44 -15 -53 -8 -15 -80 -200 -109 -281 -30 -86 -64 -177 -72 -197
-21 -54 -28 -72 -49 -143 -13 -41 -27 -80 -32 -86 -9 -13 -174 -509 -182 -551
-3 -16 -13 -59 -21 -98 -9 -38 -22 -108 -30 -155 -25 -142 -33 -183 -44 -220
-5 -19 -16 -57 -23 -85 -6 -27 -18 -54 -25 -58 -7 -4 -13 -17 -13 -27 0 -10
-5 -22 -11 -25 -5 -4 -14 -17 -19 -29 -11 -29 -156 -223 -190 -254 -50 -47
-73 -51 -235 -42 -82 5 -168 12 -190 15 -22 4 -87 13 -145 21 -135 18 -130 17
-239 53 -51 17 -102 31 -113 31 -11 0 -39 9 -62 19 -23 11 -74 34 -113 52 -40
17 -73 36 -73 40 0 5 -11 9 -25 9 -14 0 -28 7 -31 15 -4 8 -14 15 -24 15 -9 0
-28 8 -41 18 -13 10 -59 35 -101 56 -43 20 -78 41 -78 46 0 4 -12 11 -26 14
-30 8 -74 -16 -74 -40 0 -8 -8 -17 -17 -21 -19 -7 -68 -49 -112 -95 -14 -16
-33 -28 -42 -28 -9 0 -24 -11 -33 -25 -14 -22 -39 -39 -117 -80 -11 -5 -19
-13 -19 -17 0 -5 -6 -8 -14 -8 -8 0 -24 -14 -36 -30 -12 -17 -28 -30 -35 -30
-8 0 -22 -11 -31 -25 -9 -14 -23 -25 -30 -25 -8 0 -14 -4 -14 -10 0 -5 -8 -10
-19 -10 -10 0 -25 -7 -32 -17 -19 -22 -116 -93 -128 -93 -6 0 -14 -8 -19 -17
-5 -9 -23 -24 -39 -32 -62 -33 -131 -82 -137 -96 -8 -21 -49 -19 -130 9 -39
13 -129 40 -201 60 -71 20 -150 43 -175 51 -25 8 -56 17 -70 19 -14 3 -50 10
-80 16 -30 7 -75 16 -100 21 -25 5 -63 13 -85 19 -46 12 -244 37 -395 50 -252
22 -350 27 -600 29 -145 1 -267 4 -272 7 -4 2 -78 9 -165 14 -87 5 -212 16
-278 25 -116 16 -169 22 -360 45 -49 6 -133 18 -185 26 -52 9 -124 20 -160 25
-36 5 -87 13 -115 19 -27 6 -84 14 -125 19 -41 5 -86 12 -100 16 -14 3 -66 12
-115 20 -167 27 -266 44 -286 50 -11 4 -34 8 -52 10 -73 9 -218 34 -297 50
-116 25 -224 44 -280 50 -84 9 -100 14 -95 28 3 6 -8 19 -24 28 -24 14 -29 24
-33 67 -3 28 -12 58 -22 67 -9 10 -20 30 -23 46 -3 16 -9 29 -13 29 -4 0 -12
18 -19 40 -9 31 -17 40 -33 40 -21 0 -21 0 -2 15 17 13 17 17 4 28 -34 28 -89
174 -74 198 3 5 -6 13 -20 19 -19 7 -26 17 -26 37 0 16 -7 36 -15 47 -8 11
-12 30 -8 46 3 15 -1 38 -8 51 -14 26 -15 31 -17 102 -2 33 -6 47 -16 47 -8 0
-28 11 -44 25 -21 18 -42 25 -71 25 l-41 0 0 40 0 40 40 0 40 0 0 61 c0 37 4
58 10 54 6 -3 10 -48 10 -101 0 -87 1 -94 20 -94 17 0 20 7 20 43 0 23 -5 69
-11 102 -7 33 -15 87 -19 120 -6 54 -7 55 -8 18 -3 -63 -22 -52 -22 11 0 30
-5 58 -11 61 -7 5 -3 15 9 29 17 17 19 28 13 63 -5 23 -15 49 -25 58 -9 9 -16
26 -16 38 0 12 -9 36 -20 52 -35 53 -38 59 -52 93 -8 19 -20 32 -30 32 -10 0
-18 6 -18 13 0 8 -4 7 -10 -3 -7 -11 -10 -5 -10 25 0 22 -9 56 -19 75 -11 19
-25 48 -32 63 -14 35 -43 32 -47 -6 -2 -15 -12 -31 -22 -37 -10 -5 -21 -20
-24 -32 -3 -13 -3 3 -1 34 2 40 9 62 24 77 23 23 19 46 -10 62 -11 5 -19 19
-19 30 0 20 -1 20 -31 -5 -38 -33 -49 -33 -49 -1 0 25 8 29 43 26 31 -4 18 40
-16 52 -10 4 -15 12 -12 18 4 6 0 18 -10 27 -9 9 -34 41 -56 71 -21 29 -39 49
-39 45 0 -9 -21 24 -36 56 -7 13 -97 136 -124 168 -18 20 -43 15 -37 -8 3 -11
1 -20 -4 -20 -14 0 -11 68 3 73 9 3 6 12 -9 29 -13 13 -23 30 -23 36 0 7 -7
12 -15 12 -8 0 -15 8 -15 18 0 11 -8 28 -18 40 -10 11 -27 33 -38 48 -10 14
-29 39 -41 54 -13 15 -23 31 -23 34 0 3 -8 15 -17 25 -28 31 -58 70 -123 161
-33 47 -67 94 -76 105 -9 11 -31 43 -50 70 -18 28 -51 75 -74 105 -22 30 -43
62 -47 70 -4 8 -10 17 -13 20 -4 3 -26 37 -49 75 -23 39 -46 77 -51 85 -36 59
-70 126 -70 142 0 10 -4 18 -8 18 -13 0 -51 99 -63 165 -25 137 23 341 131
547 63 122 76 144 120 197 160 193 282 316 453 455 33 26 69 56 80 66 49 42
66 56 88 70 12 8 40 32 63 53 23 21 51 42 64 47 12 5 22 18 22 28 0 15 -9 21
-42 25 -112 15 -448 68 -483 76 -22 5 -83 12 -135 16 -52 3 -165 15 -250 25
-85 11 -189 21 -230 24 -41 3 -122 10 -180 17 -101 11 -160 14 -575 24 -104 2
-217 10 -250 17 -33 7 -101 12 -152 11 -71 -1 -93 1 -97 13 -4 11 10 14 82 14
48 0 103 -5 122 -10 24 -7 36 -7 38 0 3 8 8 8 16 1 9 -8 21 -7 39 2 35 16 38
61 5 72 -21 6 -21 8 -4 12 10 3 22 0 25 -6 11 -17 81 -1 81 19 0 20 26 45 58
54 12 4 22 13 22 21 0 7 10 15 23 17 14 2 29 17 42 43 21 41 69 95 85 95 4 0
10 -5 12 -10 2 -7 13 -6 30 2 23 11 28 19 28 51 0 20 5 37 10 37 6 0 10 -5 10
-10 0 -22 47 22 59 55 8 23 19 35 31 35 10 0 22 9 25 20 3 11 15 20 26 20 14
0 21 9 25 29 4 17 16 33 30 40 21 9 24 17 24 71 0 56 14 82 23 43 3 -15 6 -14
15 7 6 14 13 38 17 54 3 16 14 30 25 33 11 3 21 15 22 27 1 11 3 39 4 61 2 22
6 66 10 98 4 38 2 57 -5 57 -6 0 -11 9 -11 19 0 12 7 18 18 17 14 -1 17 9 20
62 l3 62 -2701 0 -2700 0 0 -5400z m2670 4680 c0 -64 -3 -80 -15 -80 -12 0
-15 -20 -15 -120 l0 -120 -40 0 -40 0 0 40 c0 32 4 40 19 40 16 0 20 15 31
120 7 66 17 120 21 120 5 0 9 18 9 40 0 29 4 40 15 40 12 0 15 -16 15 -80z
m1882 -3356 c9 -20 9 -30 0 -45 -18 -29 -15 -39 14 -39 l26 0 -7 -77 c-4 -43
-10 -80 -15 -83 -4 -3 -10 -12 -14 -20 -3 -8 -4 -3 -1 12 4 24 -21 88 -35 88
-11 0 -41 -67 -36 -80 3 -8 1 -31 -3 -50 l-9 -35 -2 45 c-7 111 2 190 21 190
5 0 14 -9 21 -20 14 -22 48 -27 48 -7 0 19 -21 37 -43 37 -14 0 -17 5 -11 22
3 12 8 36 9 52 3 38 3 36 15 36 6 0 16 -12 22 -26z m492 11 c34 -10 94 -15
193 -15 94 0 142 -4 138 -10 -3 -5 -35 -10 -69 -10 -35 0 -91 -3 -125 -6 -56
-6 -61 -9 -61 -30 0 -23 -3 -24 -80 -24 -64 0 -80 3 -80 15 0 11 11 15 40 15
35 0 40 3 40 23 0 16 -10 27 -38 39 -47 20 -22 22 42 3z m-644 -610 c0 -67 -3
-83 -14 -79 -17 6 -25 -35 -33 -178 -5 -96 -4 -108 11 -108 12 0 16 -9 16 -40
0 -33 -3 -40 -20 -40 -17 0 -20 7 -20 40 0 22 -4 40 -10 40 -5 0 -10 10 -11
23 l0 22 -11 -22 c-11 -23 -28 -31 -28 -13 0 10 22 63 30 70 3 3 6 19 7 35 5
76 30 216 41 227 9 9 12 8 12 -5 0 -9 5 -17 11 -17 14 0 2 72 -14 82 -8 5 -5
13 7 27 11 12 21 21 23 21 1 0 3 -38 3 -85z m2560 -695 c0 -5 18 -10 40 -10
22 0 40 5 40 10 0 6 20 10 45 10 52 0 65 -17 45 -56 -11 -19 -21 -24 -52 -24
-27 0 -38 -4 -38 -15 0 -13 -149 -15 -1280 -15 -1131 0 -1280 2 -1280 15 0 11
-11 15 -40 15 l-40 0 0 40 0 40 1280 0 c847 0 1280 -3 1280 -10z m-480 -615
c0 -13 -47 -15 -360 -15 l-360 0 0 -25 0 -25 440 0 c384 0 440 -2 440 -15 0
-11 -11 -15 -40 -15 -22 0 -40 -4 -40 -9 0 -6 -164 -10 -400 -11 -269 0 -400
3 -400 10 0 5 -7 10 -15 10 -11 0 -15 11 -15 40 0 29 4 40 15 40 8 0 15 7 15
15 0 13 47 15 360 15 313 0 360 -2 360 -15z"/>
</g>
</svg>
